<svg width="139" height="44" viewBox="0 0 139 44" fill="none" xmlns="http://www.w3.org/2000/svg">
<path d="M138.5 0.5H0.5V43.5H138.5V0.5Z" stroke="white" stroke-linejoin="round"/>
<path d="M34.9509 34.2667H34.8386C34.2294 34.2667 33.7177 33.7671 33.6735 33.1294C33.629 32.4607 34.1175 31.8785 34.7626 31.8346C34.788 31.8329 34.8145 31.832 34.8405 31.832C35.4575 31.832 35.9743 32.3219 36.0201 32.9487C36.0319 33.1971 35.9914 33.5514 35.736 33.8439L35.73 33.8507L35.7242 33.8575C35.5275 34.0912 35.2607 34.2321 34.9509 34.2667ZM21.2189 34.2604C20.5683 34.2604 20.0391 33.7174 20.0391 33.05C20.0391 32.3832 20.5683 31.8406 21.2189 31.8406C21.8694 31.8406 22.3987 32.3832 22.3987 33.05C22.3987 33.7174 21.8694 34.2604 21.2189 34.2604Z" fill="white"/>
<path d="M34.876 33.2662C34.921 33.2549 34.9423 33.2339 34.96 33.2129C34.9678 33.2037 34.9756 33.1946 34.9835 33.1855C35.02 33.1438 35.0233 33.0553 35.0224 33.0105C35.0092 32.9044 34.9185 32.8315 34.8412 32.8315C34.8375 32.8315 34.8336 32.8317 34.8312 32.8318C34.7531 32.8372 34.6653 32.9409 34.6719 33.0625C34.6813 33.1793 34.7675 33.2662 34.8392 33.2662H34.876ZM21.2195 33.2599C21.3187 33.2599 21.3994 33.1655 21.3994 33.0496C21.3994 32.9341 21.3187 32.8401 21.2195 32.8401C21.1204 32.8401 21.0397 32.9341 21.0397 33.0496C21.0397 33.1655 21.1204 33.2599 21.2195 33.2599ZM34.9995 35.2662C34.9517 35.2662 34.8878 35.2662 34.8392 35.2662C33.7017 35.2662 32.7567 34.3545 32.6765 33.198C32.5964 31.9929 33.4937 30.9183 34.6953 30.8364C34.7441 30.8331 34.7928 30.8315 34.8412 30.8315C35.9799 30.8315 36.9413 31.7324 37.019 32.8884C37.0505 33.4915 36.8741 34.0612 36.4898 34.5012C36.1055 34.9575 35.5764 35.2177 34.9995 35.2662ZM21.2195 35.2599C20.0153 35.2599 19.0397 34.2709 19.0397 33.0496C19.0397 31.8291 20.0153 30.8401 21.2195 30.8401C22.4237 30.8401 23.3994 31.8291 23.3994 33.0496C23.3994 34.2709 22.4237 35.2599 21.2195 35.2599ZM34.1984 28.3938H22.1331C21.7001 28.3938 21.3159 28.1005 21.2033 27.6775L17.2775 13.2477H14.5217C13.9934 13.2477 13.5605 12.8086 13.5605 12.2704C13.5605 11.733 13.9934 11.293 14.5217 11.293H17.9993C18.4313 11.293 18.8156 11.5863 18.9281 12.0103L22.8539 26.4391H33.5576L37.1144 18.1338H25.2578C24.7286 18.1338 24.2957 17.6937 24.2957 17.1565C24.2957 16.6191 24.7286 16.1791 25.2578 16.1791H38.5886C38.9091 16.1791 39.2141 16.3419 39.3896 16.6191C39.566 16.8954 39.5984 17.2374 39.4697 17.547L35.0795 27.807C34.9193 28.1653 34.5827 28.3938 34.1984 28.3938Z" fill="white"/>
<path d="M34.876 33.2662C34.921 33.2549 34.9423 33.2339 34.96 33.2129C34.9678 33.2037 34.9756 33.1946 34.9835 33.1855C35.02 33.1438 35.0233 33.0553 35.0224 33.0105C35.0092 32.9044 34.9185 32.8315 34.8412 32.8315C34.8375 32.8315 34.8336 32.8317 34.8312 32.8318C34.7531 32.8372 34.6653 32.9409 34.6719 33.0625C34.6813 33.1793 34.7675 33.2662 34.8392 33.2662H34.876ZM21.2195 33.2599C21.3187 33.2599 21.3994 33.1655 21.3994 33.0496C21.3994 32.9341 21.3187 32.8401 21.2195 32.8401C21.1204 32.8401 21.0397 32.9341 21.0397 33.0496C21.0397 33.1655 21.1204 33.2599 21.2195 33.2599ZM34.9995 35.2662C34.9517 35.2662 34.8878 35.2662 34.8392 35.2662C33.7017 35.2662 32.7567 34.3545 32.6765 33.198C32.5964 31.9929 33.4937 30.9183 34.6953 30.8364C34.7441 30.8331 34.7928 30.8315 34.8412 30.8315C35.9799 30.8315 36.9413 31.7324 37.019 32.8884C37.0505 33.4915 36.8741 34.0612 36.4898 34.5012C36.1055 34.9575 35.5764 35.2177 34.9995 35.2662ZM21.2195 35.2599C20.0153 35.2599 19.0397 34.2709 19.0397 33.0496C19.0397 31.8291 20.0153 30.8401 21.2195 30.8401C22.4237 30.8401 23.3994 31.8291 23.3994 33.0496C23.3994 34.2709 22.4237 35.2599 21.2195 35.2599ZM34.1984 28.3938H22.1331C21.7001 28.3938 21.3159 28.1005 21.2033 27.6775L17.2775 13.2477H14.5217C13.9934 13.2477 13.5605 12.8086 13.5605 12.2704C13.5605 11.733 13.9934 11.293 14.5217 11.293H17.9993C18.4313 11.293 18.8156 11.5863 18.9281 12.0103L22.8539 26.4391H33.5576L37.1144 18.1338H25.2578C24.7286 18.1338 24.2957 17.6937 24.2957 17.1565C24.2957 16.6191 24.7286 16.1791 25.2578 16.1791H38.5886C38.9091 16.1791 39.2141 16.3419 39.3896 16.6191C39.566 16.8954 39.5984 17.2374 39.4697 17.547L35.0795 27.807C34.9193 28.1653 34.5827 28.3938 34.1984 28.3938Z" fill="white"/>
<path d="M57.2018 24.5104L55.6268 20.4294C55.5801 20.308 55.5311 20.168 55.4798 20.0094C55.4284 19.846 55.3794 19.6734 55.3328 19.4914C55.2348 19.8694 55.1344 20.1844 55.0318 20.4364L53.4568 24.5104H57.2018ZM60.0298 28.2344H58.9798C58.8584 28.2344 58.7604 28.204 58.6858 28.1434C58.6111 28.0827 58.5551 28.0057 58.5178 27.9124L57.5798 25.4904H53.0788L52.1408 27.9124C52.1128 27.9964 52.0591 28.071 51.9798 28.1364C51.9004 28.2017 51.8024 28.2344 51.6858 28.2344H50.6358L54.6468 18.2034H56.0188L60.0298 28.2344ZM65.525 22.8304C65.2916 22.5177 65.0396 22.3007 64.769 22.1794C64.4983 22.0534 64.195 21.9904 63.859 21.9904C63.201 21.9904 62.6946 22.226 62.34 22.6974C61.9853 23.1687 61.808 23.8407 61.808 24.7134C61.808 25.1754 61.8476 25.572 61.927 25.9034C62.0063 26.23 62.123 26.5007 62.277 26.7154C62.431 26.9254 62.62 27.0794 62.844 27.1774C63.068 27.2754 63.3223 27.3244 63.607 27.3244C64.0176 27.3244 64.3746 27.231 64.678 27.0444C64.986 26.8577 65.2683 26.594 65.525 26.2534V22.8304ZM66.771 17.9234V28.2344H66.029C65.8516 28.2344 65.7396 28.148 65.693 27.9754L65.581 27.1144C65.2776 27.4784 64.9323 27.7724 64.545 27.9964C64.1576 28.2204 63.7096 28.3324 63.201 28.3324C62.795 28.3324 62.4263 28.2554 62.095 28.1014C61.7636 27.9427 61.4813 27.7117 61.248 27.4084C61.0146 27.105 60.835 26.727 60.709 26.2744C60.583 25.8217 60.52 25.3014 60.52 24.7134C60.52 24.1907 60.59 23.7054 60.73 23.2574C60.87 22.8047 61.0706 22.4127 61.332 22.0814C61.5933 21.75 61.913 21.491 62.291 21.3044C62.6736 21.113 63.103 21.0174 63.579 21.0174C64.013 21.0174 64.384 21.092 64.692 21.2414C65.0046 21.386 65.2823 21.589 65.525 21.8504V17.9234H66.771ZM73.359 22.8304C73.1256 22.5177 72.8736 22.3007 72.603 22.1794C72.3323 22.0534 72.029 21.9904 71.693 21.9904C71.035 21.9904 70.5286 22.226 70.174 22.6974C69.8193 23.1687 69.642 23.8407 69.642 24.7134C69.642 25.1754 69.6816 25.572 69.761 25.9034C69.8403 26.23 69.957 26.5007 70.111 26.7154C70.265 26.9254 70.454 27.0794 70.678 27.1774C70.902 27.2754 71.1563 27.3244 71.441 27.3244C71.8516 27.3244 72.2086 27.231 72.512 27.0444C72.82 26.8577 73.1023 26.594 73.359 26.2534V22.8304ZM74.605 17.9234V28.2344H73.863C73.6856 28.2344 73.5736 28.148 73.527 27.9754L73.415 27.1144C73.1116 27.4784 72.7663 27.7724 72.379 27.9964C71.9916 28.2204 71.5436 28.3324 71.035 28.3324C70.629 28.3324 70.2603 28.2554 69.929 28.1014C69.5976 27.9427 69.3153 27.7117 69.082 27.4084C68.8486 27.105 68.669 26.727 68.543 26.2744C68.417 25.8217 68.354 25.3014 68.354 24.7134C68.354 24.1907 68.424 23.7054 68.564 23.2574C68.704 22.8047 68.9046 22.4127 69.166 22.0814C69.4273 21.75 69.747 21.491 70.125 21.3044C70.5076 21.113 70.937 21.0174 71.413 21.0174C71.847 21.0174 72.218 21.092 72.526 21.2414C72.8386 21.386 73.1163 21.589 73.359 21.8504V17.9234H74.605ZM82.332 28.3464C81.772 28.3464 81.3403 28.19 81.037 27.8774C80.7383 27.5647 80.589 27.1144 80.589 26.5264V22.1864H79.735C79.6603 22.1864 79.5973 22.1654 79.546 22.1234C79.4946 22.0767 79.469 22.0067 79.469 21.9134V21.4164L80.631 21.2694L80.918 19.0784C80.932 19.0084 80.9623 18.9524 81.009 18.9104C81.0603 18.8637 81.1256 18.8404 81.205 18.8404H81.835V21.2834H83.886V22.1864H81.835V26.4424C81.835 26.741 81.9073 26.9627 82.052 27.1074C82.1966 27.252 82.3833 27.3244 82.612 27.3244C82.7426 27.3244 82.8546 27.308 82.948 27.2754C83.046 27.238 83.13 27.1984 83.2 27.1564C83.27 27.1144 83.3283 27.077 83.375 27.0444C83.4263 27.007 83.4706 26.9884 83.508 26.9884C83.5733 26.9884 83.6316 27.028 83.683 27.1074L84.047 27.7024C83.8323 27.903 83.5733 28.0617 83.27 28.1784C82.9666 28.2904 82.654 28.3464 82.332 28.3464ZM88.1205 21.0314C88.6385 21.0314 89.1052 21.1177 89.5205 21.2904C89.9359 21.463 90.2905 21.708 90.5845 22.0254C90.8785 22.3427 91.1025 22.7277 91.2565 23.1804C91.4152 23.6284 91.4945 24.13 91.4945 24.6854C91.4945 25.2454 91.4152 25.7494 91.2565 26.1974C91.1025 26.6454 90.8785 27.028 90.5845 27.3454C90.2905 27.6627 89.9359 27.9077 89.5205 28.0804C89.1052 28.2484 88.6385 28.3324 88.1205 28.3324C87.5979 28.3324 87.1265 28.2484 86.7065 28.0804C86.2912 27.9077 85.9365 27.6627 85.6425 27.3454C85.3485 27.028 85.1222 26.6454 84.9635 26.1974C84.8095 25.7494 84.7325 25.2454 84.7325 24.6854C84.7325 24.13 84.8095 23.6284 84.9635 23.1804C85.1222 22.7277 85.3485 22.3427 85.6425 22.0254C85.9365 21.708 86.2912 21.463 86.7065 21.2904C87.1265 21.1177 87.5979 21.0314 88.1205 21.0314ZM88.1205 27.3594C88.8205 27.3594 89.3432 27.126 89.6885 26.6594C90.0339 26.188 90.2065 25.5324 90.2065 24.6924C90.2065 23.8477 90.0339 23.1897 89.6885 22.7184C89.3432 22.247 88.8205 22.0114 88.1205 22.0114C87.7659 22.0114 87.4555 22.072 87.1895 22.1934C86.9282 22.3147 86.7089 22.4897 86.5315 22.7184C86.3589 22.947 86.2282 23.2294 86.1395 23.5654C86.0555 23.8967 86.0135 24.2724 86.0135 24.6924C86.0135 25.5324 86.1862 26.188 86.5315 26.6594C86.8815 27.126 87.4112 27.3594 88.1205 27.3594ZM103.993 26.1624C104.068 26.1624 104.133 26.1927 104.189 26.2534L104.728 26.8344C104.317 27.3104 103.818 27.6814 103.23 27.9474C102.647 28.2134 101.94 28.3464 101.109 28.3464C100.39 28.3464 99.7369 28.2227 99.1489 27.9754C98.5609 27.7234 98.0593 27.3734 97.6439 26.9254C97.2286 26.4727 96.9066 25.9314 96.6779 25.3014C96.4493 24.6714 96.3349 23.9784 96.3349 23.2224C96.3349 22.4664 96.4539 21.7734 96.6919 21.1434C96.9299 20.5134 97.2636 19.972 97.6929 19.5194C98.1269 19.0667 98.6449 18.7167 99.2469 18.4694C99.8489 18.2174 100.514 18.0914 101.242 18.0914C101.956 18.0914 102.586 18.2057 103.132 18.4344C103.678 18.663 104.159 18.9734 104.574 19.3654L104.126 19.9884C104.098 20.035 104.061 20.0747 104.014 20.1074C103.972 20.1354 103.914 20.1494 103.839 20.1494C103.755 20.1494 103.652 20.105 103.531 20.0164C103.41 19.923 103.251 19.8204 103.055 19.7084C102.859 19.5964 102.614 19.496 102.32 19.4074C102.026 19.314 101.664 19.2674 101.235 19.2674C100.717 19.2674 100.243 19.3584 99.8139 19.5404C99.3846 19.7177 99.0136 19.9767 98.7009 20.3174C98.3929 20.658 98.1526 21.0734 97.9799 21.5634C97.8073 22.0534 97.7209 22.6064 97.7209 23.2224C97.7209 23.8477 97.8096 24.4054 97.9869 24.8954C98.1689 25.3854 98.4139 25.8007 98.7219 26.1414C99.0346 26.4774 99.4009 26.734 99.8209 26.9114C100.246 27.0887 100.703 27.1774 101.193 27.1774C101.492 27.1774 101.76 27.161 101.998 27.1284C102.241 27.091 102.462 27.035 102.663 26.9604C102.868 26.8857 103.057 26.7924 103.23 26.6804C103.407 26.5637 103.582 26.426 103.755 26.2674C103.834 26.1974 103.914 26.1624 103.993 26.1624ZM109.851 25.0424C109.277 25.061 108.787 25.1077 108.381 25.1824C107.98 25.2524 107.651 25.3457 107.394 25.4624C107.142 25.579 106.958 25.7167 106.841 25.8754C106.729 26.034 106.673 26.2114 106.673 26.4074C106.673 26.594 106.704 26.755 106.764 26.8904C106.825 27.0257 106.907 27.1377 107.009 27.2264C107.117 27.3104 107.24 27.3734 107.38 27.4154C107.525 27.4527 107.679 27.4714 107.842 27.4714C108.062 27.4714 108.262 27.4504 108.444 27.4084C108.626 27.3617 108.797 27.2964 108.955 27.2124C109.119 27.1284 109.273 27.028 109.417 26.9114C109.567 26.7947 109.711 26.6617 109.851 26.5124V25.0424ZM105.826 22.1444C106.218 21.7664 106.641 21.484 107.093 21.2974C107.546 21.1107 108.048 21.0174 108.598 21.0174C108.995 21.0174 109.347 21.0827 109.655 21.2134C109.963 21.344 110.222 21.526 110.432 21.7594C110.642 21.9927 110.801 22.275 110.908 22.6064C111.016 22.9377 111.069 23.3017 111.069 23.6984V28.2344H110.516C110.395 28.2344 110.302 28.2157 110.236 28.1784C110.171 28.1364 110.12 28.057 110.082 27.9404L109.942 27.2684C109.756 27.441 109.574 27.595 109.396 27.7304C109.219 27.861 109.032 27.973 108.836 28.0664C108.64 28.155 108.43 28.2227 108.206 28.2694C107.987 28.3207 107.742 28.3464 107.471 28.3464C107.196 28.3464 106.937 28.309 106.694 28.2344C106.452 28.155 106.239 28.0384 106.057 27.8844C105.88 27.7304 105.738 27.5367 105.63 27.3034C105.528 27.0654 105.476 26.7854 105.476 26.4634C105.476 26.1834 105.553 25.915 105.707 25.6584C105.861 25.397 106.111 25.166 106.456 24.9654C106.802 24.7647 107.252 24.6014 107.807 24.4754C108.363 24.3447 109.044 24.27 109.851 24.2514V23.6984C109.851 23.1477 109.732 22.7324 109.494 22.4524C109.256 22.1677 108.909 22.0254 108.451 22.0254C108.143 22.0254 107.884 22.065 107.674 22.1444C107.469 22.219 107.289 22.3054 107.135 22.4034C106.986 22.4967 106.855 22.583 106.743 22.6624C106.636 22.737 106.529 22.7744 106.421 22.7744C106.337 22.7744 106.265 22.7534 106.204 22.7114C106.144 22.6647 106.092 22.6087 106.05 22.5434L105.826 22.1444ZM114.15 22.5644C114.374 22.079 114.65 21.701 114.976 21.4304C115.303 21.155 115.702 21.0174 116.173 21.0174C116.323 21.0174 116.465 21.0337 116.6 21.0664C116.74 21.099 116.864 21.1504 116.971 21.2204L116.88 22.1514C116.852 22.268 116.782 22.3264 116.67 22.3264C116.605 22.3264 116.509 22.3124 116.383 22.2844C116.257 22.2564 116.115 22.2424 115.956 22.2424C115.732 22.2424 115.532 22.275 115.354 22.3404C115.182 22.4057 115.025 22.5037 114.885 22.6344C114.75 22.7604 114.626 22.919 114.514 23.1104C114.407 23.297 114.309 23.5117 114.22 23.7544V28.2344H112.967V21.1434H113.681C113.817 21.1434 113.91 21.169 113.961 21.2204C114.013 21.2717 114.048 21.3604 114.066 21.4864L114.15 22.5644ZM120.244 28.3464C119.684 28.3464 119.252 28.19 118.949 27.8774C118.65 27.5647 118.501 27.1144 118.501 26.5264V22.1864H117.647C117.572 22.1864 117.509 22.1654 117.458 22.1234C117.407 22.0767 117.381 22.0067 117.381 21.9134V21.4164L118.543 21.2694L118.83 19.0784C118.844 19.0084 118.874 18.9524 118.921 18.9104C118.972 18.8637 119.038 18.8404 119.117 18.8404H119.747V21.2834H121.798V22.1864H119.747V26.4424C119.747 26.741 119.819 26.9627 119.964 27.1074C120.109 27.252 120.295 27.3244 120.524 27.3244C120.655 27.3244 120.767 27.308 120.86 27.2754C120.958 27.238 121.042 27.1984 121.112 27.1564C121.182 27.1144 121.24 27.077 121.287 27.0444C121.338 27.007 121.383 26.9884 121.42 26.9884C121.485 26.9884 121.544 27.028 121.595 27.1074L121.959 27.7024C121.744 27.903 121.485 28.0617 121.182 28.1784C120.879 28.2904 120.566 28.3464 120.244 28.3464Z" fill="white"/>
</svg>
